<svg width="21" height="20" viewBox="0 0 21 20" fill="none" xmlns="http://www.w3.org/2000/svg">
<path fill-rule="evenodd" clip-rule="evenodd" d="M9.731 3.98417C10.0355 3.52751 10.448 3.1531 10.932 2.89419C11.4159 2.63528 11.9563 2.49987 12.5052 2.5H12.6827C12.9247 2.49997 13.1639 2.55268 13.3836 2.65446C13.6032 2.75624 13.7981 2.90465 13.9546 3.08936C14.111 3.27408 14.2254 3.49066 14.2897 3.72406C14.354 3.95745 14.3667 4.20205 14.3268 4.44083L13.8168 7.5H15.8002C16.17 7.49998 16.5353 7.58202 16.8696 7.74022C17.204 7.89843 17.499 8.12884 17.7335 8.41485C17.9681 8.70087 18.1362 9.03535 18.2258 9.3942C18.3154 9.75304 18.3243 10.1273 18.2518 10.49L17.2518 15.49C17.1385 16.0568 16.8323 16.5668 16.3853 16.9333C15.9384 17.2998 15.3782 17.5 14.8002 17.5H5.3335C4.67045 17.5 4.03457 17.2366 3.56573 16.7678C3.09689 16.2989 2.8335 15.663 2.8335 15V8.33333C2.8335 8.11232 2.92129 7.90036 3.07757 7.74408C3.23385 7.5878 3.44582 7.5 3.66683 7.5H6.94183C7.07899 7.50002 7.21403 7.46618 7.33498 7.4015C7.45593 7.33681 7.55904 7.24326 7.63516 7.12917L9.731 3.98417ZM6.16683 9.16667H4.50016V15C4.50016 15.221 4.58796 15.433 4.74424 15.5893C4.90052 15.7455 5.11248 15.8333 5.3335 15.8333H6.16683V9.16667Z" fill="#A8B2BC"/>
</svg>
