<svg width="19" height="19" viewBox="0 0 19 19" fill="none" xmlns="http://www.w3.org/2000/svg">
<path fill-rule="evenodd" clip-rule="evenodd" d="M8.70837 4.35417C8.70837 3.91694 9.0628 3.5625 9.50004 3.5625H16.625C17.0623 3.5625 17.4167 3.91694 17.4167 4.35417C17.4167 4.7914 17.0623 5.14583 16.625 5.14583H9.50004C9.0628 5.14583 8.70837 4.79139 8.70837 4.35417Z" fill="#02A770"/>
<path fill-rule="evenodd" clip-rule="evenodd" d="M8.70837 9.49992C8.70837 9.06268 9.0628 8.70825 9.50004 8.70825H16.625C17.0623 8.70825 17.4167 9.06268 17.4167 9.49992C17.4167 9.93716 17.0623 10.2916 16.625 10.2916H9.50004C9.0628 10.2916 8.70837 9.93716 8.70837 9.49992Z" fill="#02A770"/>
<path fill-rule="evenodd" clip-rule="evenodd" d="M8.70837 14.6459C8.70837 14.2087 9.0628 13.8542 9.50004 13.8542H16.625C17.0623 13.8542 17.4167 14.2087 17.4167 14.6459C17.4167 15.0832 17.0623 15.4376 16.625 15.4376H9.50004C9.0628 15.4376 8.70837 15.0832 8.70837 14.6459Z" fill="#02A770"/>
<path fill-rule="evenodd" clip-rule="evenodd" d="M2.8008 1.69122C3.17846 1.47092 3.66322 1.59849 3.88352 1.97615L4.35421 2.78304L4.82489 1.97615C5.0452 1.59849 5.52995 1.47092 5.90762 1.69122C6.28529 1.91153 6.41285 2.39628 6.19254 2.77394L5.73253 3.56255H6.33337C6.7706 3.56255 7.12504 3.91698 7.12504 4.35421C7.12504 4.79144 6.7706 5.14588 6.33337 5.14588H5.73253L6.19254 5.93448C6.41285 6.31215 6.28529 6.7969 5.90762 7.01721C5.52995 7.23751 5.0452 7.10994 4.82489 6.73228L4.35421 5.92538L3.88352 6.73228C3.66322 7.10994 3.17846 7.23751 2.8008 7.01721C2.42313 6.7969 2.29557 6.31215 2.51587 5.93448L2.97588 5.14588H2.37504C1.93782 5.14588 1.58337 4.79144 1.58337 4.35421C1.58337 3.91698 1.93782 3.56255 2.37504 3.56255H2.97588L2.51587 2.77394C2.29557 2.39628 2.42313 1.91153 2.8008 1.69122Z" fill="#02A770"/>
<path fill-rule="evenodd" clip-rule="evenodd" d="M2.8008 11.9827C3.17846 11.7624 3.66322 11.89 3.88352 12.2676L4.35421 13.0746L4.82489 12.2676C5.0452 11.89 5.52995 11.7624 5.90762 11.9827C6.28529 12.203 6.41285 12.6877 6.19254 13.0655L5.73253 13.854H6.33337C6.7706 13.854 7.12504 14.2085 7.12504 14.6457C7.12504 15.0829 6.7706 15.4374 6.33337 15.4374H5.73253L6.19254 16.2259C6.41285 16.6036 6.28529 17.0884 5.90762 17.3087C5.52995 17.529 5.0452 17.4014 4.82489 17.0238L4.35421 16.2169L3.88352 17.0238C3.66322 17.4014 3.17846 17.529 2.8008 17.3087C2.42313 17.0884 2.29557 16.6036 2.51587 16.2259L2.97588 15.4374H2.37504C1.93782 15.4374 1.58337 15.0829 1.58337 14.6457C1.58337 14.2085 1.93782 13.854 2.37504 13.854H2.97588L2.51587 13.0655C2.29557 12.6877 2.42313 12.203 2.8008 11.9827Z" fill="#02A770"/>
</svg>
